<svg width="18" height="18" viewBox="0 0 18 18" fill="none" xmlns="http://www.w3.org/2000/svg">
<path fill-rule="evenodd" clip-rule="evenodd" d="M16 0H2C0.9 0 0 0.9 0 2V16C0 17.1 0.9 18 2 18H16C17.1 18 18 17.1 18 16V2C18 0.9 17.1 0 16 0ZM16 16L9 8V16H2L9 8V2H16V16Z" fill="white"/>
<mask id="mask0_4_1565" style="mask-type:luminance" maskUnits="userSpaceOnUse" x="-1" y="-1" width="20" height="20">
<path fill-rule="evenodd" clip-rule="evenodd" d="M16 0H2C0.9 0 0 0.9 0 2V16C0 17.1 0.9 18 2 18H16C17.1 18 18 17.1 18 16V2C18 0.9 17.1 0 16 0V0ZM16 16L9 8V16H2L9 8V2H16V16V16Z" fill="white"/>
<path d="M9 8L9.37629 7.67075L8.5 6.66928V8H9ZM9 16V16.5H9.5V16H9ZM2 16L1.62371 15.6707L0.898116 16.5H2V16ZM9 8L9.37629 8.32925L9.5 8.18787V8H9ZM9 2V1.5H8.5V2H9ZM16 2H16.5V1.5H16V2ZM16 0V-0.5H2V0V0.5H16V0ZM2 0V-0.5C0.623858 -0.5 -0.5 0.623858 -0.5 2H0H0.5C0.5 1.17614 1.17614 0.5 2 0.5V0ZM0 2H-0.5V16H0H0.5V2H0ZM0 16H-0.5C-0.5 17.3761 0.623858 18.5 2 18.5V18V17.5C1.17614 17.5 0.5 16.8239 0.5 16H0ZM2 18V18.5H16V18V17.5H2V18ZM16 18V18.5C17.3761 18.5 18.5 17.3761 18.5 16H18H17.5C17.5 16.8239 16.8239 17.5 16 17.5V18ZM18 16H18.5V2H18H17.5V16H18ZM18 2H18.5C18.5 0.623858 17.3761 -0.5 16 -0.5V0V0.5C16.8239 0.5 17.5 1.17614 17.5 2H18ZM16 16L16.3763 15.6707L9.37629 7.67075L9 8L8.62371 8.32925L15.6237 16.3293L16 16ZM9 8H8.5V16H9H9.5V8H9ZM9 16V15.5H2V16V16.5H9V16ZM2 16L2.37629 16.3293L9.37629 8.32925L9 8L8.62371 7.67075L1.62371 15.6707L2 16ZM9 8H9.5V2H9H8.5V8H9ZM9 2V2.5H16V2V1.5H9V2ZM16 2H15.5V16H16H16.5V2H16Z" fill="white"/>
</mask>
<g mask="url(#mask0_4_1565)">
</g>
</svg>
